<?xml version="1.0" encoding="utf-8"?>
<!-- Generator: Adobe Illustrator 26.5.0, SVG Export Plug-In . SVG Version: 6.00 Build 0)  -->
<svg version="1.1" id="Grupo_311" xmlns="http://www.w3.org/2000/svg" xmlns:xlink="http://www.w3.org/1999/xlink" x="0px" y="0px"
	 viewBox="0 0 91.7 34.6" style="enable-background:new 0 0 91.7 34.6;" xml:space="preserve">
<style type="text/css">
	.st0{fill:white;}
</style>
<g>
	<g id="Grupo_33">
		<path id="Trazado_56015" class="st0" d="M31.5,0l-1.1,9.2h0.9l2.9,0c2.8,0,5.6,0,8.4,0c1.9,0,3.8,0,5.6,0c0.2,0,0.2,0.1,0.3,0.2
			c0.1,0.8,0.2,1.7,0.3,2.5c0.1,0.7,0.1,1.4,0.2,2c0.1,1.4,0.2,2.9,0.2,4.3c0,0.8,0,1.5,0,2.3c0,1.1-0.1,2.2-0.2,3.2
			c-0.1,0.9-0.2,1.7-0.3,2.6c0,0.2,0.1,0.2,0.2,0.3c0.6,0.4,1.2,1.1,1.5,1.8c0.1,0.3,0.2,0.6,0.3,0.9c0,0.1,0.1,0.2,0.2,0.3
			c0.6,0.3,1.2,0.5,1.9,0.6c0.9,0.2,1.8,0.2,2.7,0.2c1.7-0.1,3.4-0.4,5.1-0.9c1.6-0.5,3.2-1.1,4.7-1.8c3.1-1.2,6.2-2.3,9.4-3.2
			c1.9-0.6,3.8-1,5.8-1.3c0.9-0.1,1.9-0.2,2.8-0.3c0.7-0.1,1.4-0.1,2,0c1.7,0,3.4,0.4,4.9,1.2c0.5,0.3,1,0.7,1.5,1
			c0,0,0.1,0.1,0.1,0.1c-0.7-0.3-1.3-0.5-2.1-0.6c-0.8-0.1-1.6-0.2-2.4-0.3c-0.7,0-1.5,0-2.2,0c-1.1,0.1-2.2,0.3-3.3,0.5
			c-2.4,0.5-4.6,1.4-6.8,2.5c-1.5,0.8-3,1.7-4.5,2.5c-2.6,1.5-5.3,2.7-8.1,3.7c-1.1,0.3-2.1,0.6-3.2,0.8c-2.2,0.4-4.4-0.3-6.1-1.7
			c-1-0.8-1.8-1.8-2.4-2.9c-0.1-0.1-0.2-0.2-0.3-0.3c-1.1-0.5-2.2-0.9-3.5-1c-1-0.1-2-0.2-3-0.2c-1.3,0-2.6,0.1-3.8,0.3
			c-0.7,0.1-1.5,0.3-2.2,0.4c0.2-0.1,0.4-0.2,0.6-0.4c1.5-0.9,3.2-1.6,4.9-2.1c0.5-0.2,1.1-0.2,1.6-0.4c0.3-0.1,0.3,0,0.3-0.3
			c0-1.1,0.1-2.2,0.1-3.4c0-2,0.1-4,0.1-6c0-1-0.1-2-0.1-3c0-0.3-0.1-0.5-0.1-0.8c-0.1,0-0.2,0-0.2,0l-14.6,0c-0.3,0-0.3,0-0.3,0.3
			c-0.1,1.6-0.1,3.1-0.2,4.7c0,1.8,0,3.7,0,5.5c0,0.7,0,1.3,0.1,2c0,0.7,0.1,1.4,0.2,2.1c0,0.1,0,0.2-0.2,0.2c-1,0-1.9,0-2.9,0
			c-0.1,0-0.2,0-0.2-0.2c-0.1-0.9-0.2-1.8-0.3-2.8c-0.1-1.2-0.2-2.5-0.2-3.7c0-0.7-0.1-1.4-0.1-2.1c0-1.1,0-2.2,0-3.4
			c0-0.9,0-1.8,0.1-2.6c0-0.9,0.1-1.9,0.2-2.8c0.2-3.3,0.9-6.5,1.9-9.6C28.6-0.1,28.5,0,29,0c0.7,0,1.5,0,2.2,0L31.5,0z"/>
		<path id="Trazado_56016" class="st0" d="M0,18.2c0-2.6,0.7-5.2,2-7.5c0.1-0.2,0.3-0.4,0.6-0.4c0.9-0.1,1.7-0.1,2.6-0.2
			c0.5,0,1-0.1,1.5-0.1C7.6,10,8.5,9.9,9.3,9.9c0.5,0,1.1-0.1,1.6-0.1c1-0.1,2-0.1,3-0.2c0.6,0,1.2-0.1,1.8-0.1
			c1.1-0.1,2.2-0.1,3.3-0.2c0.7,0,1.4-0.1,2-0.1c0.5,0,1-0.1,1.5-0.1c0.1,0,0.1,0,0.2,0c0.1,0,0.2,0,0.1,0.2c-0.1,0.7-0.2,1.3-0.3,2
			c-0.1,0.4-0.1,0.8-0.1,1.2c0,0.1,0,0.2-0.2,0.2c-0.8,0-1.7,0-2.5,0c-1.3,0-2.5,0.1-3.8,0.1c-1.1,0-2.1,0.1-3.2,0.1
			s-2.1,0.1-3.2,0.1c-0.9,0-1.8,0-2.7,0.1c-0.8,0-1.5,0.1-2.3,0.1c-0.1,0-0.2,0.1-0.2,0.2c-0.3,0.9-0.4,1.9-0.5,2.8
			c0,0.8-0.1,1.7-0.1,2.5c0,1.4,0.2,2.8,0.5,4.2c0,0.1,0.1,0.2,0.3,0.2c0,0,0,0,0,0c0.7,0,1.5,0.1,2.2,0.1c1.2,0.1,2.3,0.1,3.5,0.2
			l2.5,0.1l3.5,0.2c0.8,0,1.7,0.1,2.5,0.1c1,0,1.9,0.1,2.9,0.2c0.3,0,0.5,0,0.8,0c0.1,0,0.2,0.1,0.2,0.1c0,0,0,0,0,0
			c0.1,0.7,0.2,1.4,0.2,2.1c0,0.3,0.1,0.6,0.1,1c0,0.3,0,0.3-0.3,0.3c-0.8,0-1.5-0.1-2.3-0.1c-0.5,0-1-0.1-1.5-0.1
			c-0.8,0-1.5-0.1-2.3-0.2c-0.5,0-1-0.1-1.4-0.1c-0.7,0-1.5-0.1-2.2-0.2c-0.5,0-1-0.1-1.5-0.1c-0.7,0-1.4-0.1-2.1-0.1
			c-0.4,0-0.9-0.1-1.3-0.1c-0.7,0-1.4-0.1-2.1-0.2c-0.6,0-1.2-0.1-1.9-0.1c-0.6,0-1.2-0.1-1.8-0.2c-0.1,0-0.2-0.1-0.2-0.1
			c-1-1.7-1.6-3.6-1.9-5.6C0.1,19.7,0.1,18.9,0,18.2"/>
		<path id="Trazado_56017" class="st0" d="M74.6,13.4c-0.2,0-0.4,0-0.6,0c-0.8,0-1.5-0.1-2.3-0.1c-1.1-0.1-2.1-0.1-3.2-0.1
			c-0.4,0-0.7,0-1.1,0c-0.6,0-1.2,0-1.7,0l-4-0.1c-0.8,0-1.7-0.1-2.5-0.1c-1.8,0-3.5-0.1-5.3-0.1c-0.3,0-0.6,0-1,0
			c-0.1,0-0.2,0-0.2-0.2c-0.2-1.1-0.3-2.1-0.5-3.2c0-0.2,0-0.2,0.2-0.2c1,0,1.9,0.1,2.9,0.1c0.3,0,0.6,0,1,0c0.7,0,1.3,0.1,2,0.1
			c1,0.1,2,0.1,3,0.2c0.7,0,1.4,0.1,2.1,0.1c0.8,0.1,1.6,0.1,2.3,0.2c0.7,0.1,1.4,0.1,2.2,0.2c0.6,0.1,1.3,0.1,1.9,0.2
			c0.6,0.1,1.1,0.1,1.7,0.2c0.5,0.1,1,0.1,1.5,0.2c0.1,0,0.2,0.1,0.2,0.1C73.7,11.6,74.2,12.4,74.6,13.4
			C74.6,13.4,74.6,13.4,74.6,13.4"/>
		<path id="Trazado_56018" class="st0" d="M54.9,18c2.4,0,4.8,0,7.2,0c1.1,0,2.2,0,3.4,0c1.6,0,3.3,0.1,4.9,0.1
			c1.2,0,2.5,0.1,3.7,0.1c0.2,0,0.3,0,0.5,0c0.1,0,0.2,0,0.2,0.1c0,0,0,0,0,0c0,0.6,0,1.2,0,1.8c0,0.2,0,0.4,0,0.5s-0.1,0.2-0.2,0.2
			c-1,0-2,0-3,0c-1.1,0-2.1,0-3.2,0L65,21l-3.2,0l-3.2,0l-3.2,0l-2.5,0c-0.2,0-0.2,0-0.2-0.3c0-0.2,0-0.5,0.1-0.7c0-0.7,0-1.4,0-2.1
			c0-0.3,0-0.3,0.2-0.3L54.9,18L54.9,18"/>
	</g>
</g>
</svg>
